<svg width="200" height="200" viewBox="0 0 200 200" fill="none" xmlns="http://www.w3.org/2000/svg">
    <path d="M46.875 12.5C38.2417 12.5 31.25 19.5 31.25 28.125V171.875C31.25 180.5 38.25 187.5 46.875 187.5H153.125C161.75 187.5 168.75 180.5 168.75 171.875V106.25C168.75 97.962 165.458 90.0134 159.597 84.1529C153.737 78.2924 145.788 75 137.5 75H121.875C117.731 75 113.757 73.3538 110.826 70.4235C107.896 67.4933 106.25 63.519 106.25 59.375V43.75C106.25 35.462 102.958 27.5134 97.0971 21.6529C91.2366 15.7924 83.288 12.5 75 12.5H46.875Z" fill="#F34F29"/>
    <path d="M108.092 15.1333C114.979 23.0747 118.765 33.2379 118.75 43.75V59.375C118.75 61.1 120.15 62.5 121.875 62.5H137.5C148.012 62.4854 158.175 66.2707 166.117 73.1583C162.45 59.2142 155.146 46.4941 144.951 36.299C134.756 26.1039 122.036 18.7997 108.092 15.1333Z" fill="#F34F29"/>
    <path d="M93.5351 122.264C95.2721 122.264 96.6802 120.85 96.6802 119.106V108.158C96.6802 106.414 95.2721 105 93.5351 105H44.1452C42.4081 105 41 106.414 41 108.158V119.106C41 120.85 42.4081 122.264 44.1452 122.264H56.6482C58.3852 122.264 59.7933 123.678 59.7933 125.422V173.842C59.7933 175.586 61.2015 177 62.9385 177H74.7417C76.4788 177 77.8869 175.586 77.8869 173.842V125.422C77.8869 123.678 79.295 122.264 81.0321 122.264H93.5351ZM155.056 127.037C155.455 113.327 145.559 105.102 132.064 105.102H106.819C105.082 105.102 103.674 106.515 103.674 108.259V173.842C103.674 175.586 105.082 177 106.819 177H132.564C148.258 177 155.955 169.993 157.755 158.416C158.602 153.25 157.587 144.75 149.36 139.622C148.707 139.215 148.7 138.2 149.321 137.746C153.291 134.842 154.966 129.932 155.056 127.037ZM124.655 133.231C123.005 133.231 121.667 131.888 121.667 130.231V123.436C121.667 121.779 123.005 120.436 124.655 120.436H132.064C141.061 120.436 140.761 133.231 132.064 133.231H124.655ZM124.655 161.056C123.005 161.056 121.667 159.713 121.667 158.056V149.331C121.667 147.675 123.005 146.331 124.655 146.331H132.064C142.66 146.331 142.86 161.056 132.064 161.056H124.655Z" fill="white" fill-opacity="0.69"/>
</svg>
