<svg width="130" height="103" viewBox="0 0 130 103" fill="none" xmlns="http://www.w3.org/2000/svg">
<path d="M52.0861 17.9831C53.8082 17.9831 55.2043 16.5103 55.2043 14.6936V3.28947C55.2043 1.47275 53.8082 0 52.0861 0H3.11828C1.3961 0 0 1.47275 0 3.28947V14.6936C0 16.5103 1.3961 17.9831 3.11828 17.9831H15.5144C17.2366 17.9831 18.6327 19.4558 18.6327 21.2726V71.7105C18.6327 73.5273 20.0288 75 21.751 75H33.4534C35.1755 75 36.5716 73.5273 36.5716 71.7105V21.2725C36.5716 19.4558 37.9677 17.9831 39.6899 17.9831H52.0861ZM113.081 22.9549C113.477 8.67419 103.665 0.105789 90.2854 0.105789H65.2564C63.5342 0.105789 62.1381 1.57854 62.1381 3.39526V71.7105C62.1381 73.5272 63.5342 75 65.2564 75H90.7811C106.341 75 113.973 67.701 115.757 55.6417C116.597 50.2606 115.59 41.4062 107.434 36.0646C106.787 35.6408 106.779 34.5836 107.395 34.1105C111.331 31.0856 112.992 25.9707 113.081 22.9549ZM82.9403 29.4076C81.3042 29.4076 79.9779 28.0085 79.9779 26.2826V19.204C79.9779 17.4781 81.3042 16.079 82.9403 16.079H90.2854C99.2053 16.079 98.908 29.4076 90.2854 29.4076H82.9403ZM82.9403 58.3921C81.3042 58.3921 79.9779 56.993 79.9779 55.2671V46.1786C79.9779 44.4527 81.3042 43.0536 82.9403 43.0536H90.2854C100.791 43.0536 100.989 58.3921 90.2854 58.3921H82.9403Z" fill="white"/>
<rect x="114.994" y="47" width="10.1231" height="59" transform="rotate(32.2853 114.994 47)" fill="#A8A8A8"/>
<rect x="129.557" y="87.6157" width="10.1231" height="59" transform="rotate(126.269 129.557 87.6157)" fill="#A8A8A8"/>
</svg>
